<svg xmlns="http://www.w3.org/2000/svg" version="1.1" xmlns:xlink="http://www.w3.org/1999/xlink" xmlns:svgjs="http://svgjs.dev/svgjs" width="100%" height="100%" viewBox="0 0 1000 600"><rect width="1000" height="600" x="0" y="0" fill="#2b3252"/><g><circle r="166.66666666666666" cx="579.9325358072916" cy="602.1548335119485" fill="#fad744" transform="matrix(0.30246869394864706,0,0,0.3024686939486471,0,117.86702078156169)"/><path d="M584.588510413691 677.1548713170357L525.497601892009 677.1548713170357L525.497601892009 673.5248208469536L543.6794198986804 664.433911843618L543.6794198986804 539.8758322354142L525.497601892009 530.7849232320787L525.497601892009 527.1548727619967L634.3675503382062 527.1548727619967L634.3675503382062 566.2331552138355L630.7374998681242 566.2331552138355L616.627651519197 539.6548726415833L564.1339651561857 539.6548726415833L564.1339651561857 593.5058822238427L600.4976011695285 593.5058822238427L611.8612374236981 574.6611854356779L615.49128789378 574.6611854356779L615.49128789378 624.4402253601932L611.8612374236981 624.4402253601932L600.4976011695285 606.0058821034293L564.1339651561857 606.0058821034293L564.1339651561857 664.433911843618L584.588510413691 673.5248208469536L584.588510413691 677.1548713170357Z " fill="#2b3252" transform="matrix(0.30246869394864706,0,0,0.3024686939486471,0,117.86702078156169)"/><path d="M893.014680654208 674.9489815401196L829.9325765464821 674.9489815401196L829.9325765464821 671.4256974350255L847.5796343250397 662.6021685457467L847.5796343250397 541.707567861392L829.9325765464821 532.8840389721132L829.9325765464821 529.3607548670193L894.5771805616844 529.3607548670193Q918.8418850072011 529.3607548670193 936.0293839894421 537.9698229846836Q953.2475202247709 546.578891102348 962.1629608733131 561.5605078622693Q971.109038774943 576.5727618752785 971.109038774943 595.5372215366103L971.109038774943 595.5372215366103Q971.109038774943 612.7553577719391 965.2573234351781 627.3080529886315Q959.4056080954134 641.8607482053242 948.8357557801315 652.4612377736937Q938.2352662117619 663.0310900889756 924.0195807790349 669.0053544410916Q909.7732580932201 674.9489815401196 893.014680654208 674.9489815401196L893.014680654208 674.9489815401196ZM889.4913965491139 541.4931070897776L889.4913965491139 541.4931070897776L867.4325743259169 541.4931070897776L867.4325743259169 662.8166293173613L892.8002198825935 662.8166293173613Q910.4472776611511 662.8166293173613 923.3455612111038 655.4330513232078Q936.2438447610565 648.0494733290543 943.1985012119811 634.4771702111707Q950.1531576629058 620.9048670932868 950.1531576629058 602.3693289751839L950.1531576629058 602.3693289751839Q950.1531576629058 584.0788888817831 943.1065894527178 570.2921249922849Q936.0293839894421 556.5053611027868 922.4570808715584 548.9992340962822Q908.9154150067625 541.4931070897776 889.4913965491139 541.4931070897776ZM1114.9203047689525 674.9489815401196L1000.8884487762589 674.9489815401196L1000.8884487762589 671.4256974350255L1018.5355065548165 662.6021685457467L1018.5355065548165 541.707567861392L1000.8884487762589 532.8840389721132L1000.8884487762589 529.3607548670193L1108.7622168983098 529.3607548670193L1108.7622168983098 567.289674189683L1105.238932793216 567.289674189683L1091.544080662981 541.4931070897776L1038.388446555694 541.4931070897776L1038.388446555694 593.7602608575194L1075.8884443351287 593.7602608575194L1086.9178554467273 575.4698207641186L1090.4411395518214 575.4698207641186L1090.4411395518214 623.7847688835377L1086.9178554467273 623.7847688835377L1075.8884443351287 605.8926130802779L1038.388446555694 605.8926130802779L1038.388446555694 662.8166293173613L1097.7328057867114 662.8166293173613L1111.3970206638583 634.8141799951361L1114.9203047689525 634.8141799951361L1114.9203047689525 674.9489815401196ZM1188.602898445048 677.1548637624394L1188.602898445048 677.1548637624394Q1174.938683567901 677.1548637624394 1165.441135110691 674.6119717561542Q1155.974223906569 672.0690797498689 1145.802655881428 667.0139329903861L1145.802655881428 667.0139329903861L1143.5967736591085 630.8313370937256L1147.1506950172902 630.8313370937256L1157.9350081041866 654.2075611996968Q1165.9006939070077 660.825207866656 1173.3761836604244 663.7970214161701Q1180.882310666929 666.7994722187718 1188.602898445048 666.7994722187718L1188.602898445048 666.7994722187718Q1201.6237310073518 666.7994722187718 1209.0073090015053 659.9367275271106Q1216.3908869956585 653.1046200885371 1216.3908869956585 641.4318266620953L1216.3908869956585 641.4318266620953Q1216.3908869956585 631.7198174332709 1212.1016715633705 626.2051118774718Q1207.8124561310822 620.6904063216725 1199.7548585689976 616.3705536362963Q1191.697261006913 612.081338204008 1180.6678498953147 606.566632648209L1180.6678498953147 606.566632648209Q1170.3124583516471 601.266387864024 1163.020792116757 596.2112411045414Q1155.7291258818668 591.1254570919709 1151.9913810051585 584.3852614126608Q1148.2536361284501 577.6757029864384 1148.2536361284501 567.5347722143852L1148.2536361284501 567.5347722143852Q1148.2536361284501 560.0286452078807 1151.8688319928074 552.8595279853416Q1155.5146651102525 545.6904107628027 1161.795301993246 539.8386954230377Q1168.1065761293276 533.986980083273 1175.9190756667097 530.5862449905302Q1183.7622124571797 527.1548726446995 1192.126182550142 527.1548726446995L1192.126182550142 527.1548726446995Q1202.2977505752829 527.1548726446995 1210.8761814398595 529.5752156386336Q1219.4852495575237 531.9955586325677 1228.523239218417 536.4073230772071L1228.523239218417 536.4073230772071L1230.7291214407367 571.7014386343224L1227.2058373356426 571.7014386343224L1217.0649065635896 548.5396752999656Q1209.3443187854707 542.8105089725518 1203.615152458057 540.2676169662666Q1197.8859861306435 537.7553622130692 1190.3798591241389 537.7553622130692L1190.3798591241389 537.7553622130692Q1180.6678498953147 537.7553622130692 1174.387213012321 544.3730088800282Q1168.1065761293276 550.9906555469875 1168.1065761293276 560.672027522724L1168.1065761293276 560.672027522724Q1168.1065761293276 571.9465366590246 1174.938683567901 578.2271735420181Q1181.7707910064744 584.5078104250117 1196.323486223167 591.5543786351998L1196.323486223167 591.5543786351998Q1209.7732403286996 598.1720253021588 1218.3823084463638 603.8092798703092Q1226.9913765640283 609.4465344384596 1231.1886802370532 616.707563420262Q1235.3859839100783 623.999229655152 1235.3859839100783 635.243101538365L1235.3859839100783 635.243101538365Q1235.3859839100783 645.5984930820325 1230.974219465439 653.4416298725025Q1226.5624550207995 661.2847666629725 1219.6077985698748 666.5543741940696Q1212.6531421189502 671.8546189782544 1204.3810837852513 674.5200599968907Q1196.1090254515525 677.1548637624394 1188.602898445048 677.1548637624394ZM1305.7291169996065 677.1548637624394L1305.7291169996065 677.1548637624394Q1292.0649021224597 677.1548637624394 1282.5673536652498 674.6119717561542Q1273.1004424611276 672.0690797498689 1262.9595116890746 667.0139329903861L1262.9595116890746 667.0139329903861L1260.753629466755 630.8313370937256L1264.2769135718488 630.8313370937256L1275.091863911833 654.2075611996968Q1283.0269124615663 660.825207866656 1290.533039468071 663.7970214161701Q1298.0085292214876 666.7994722187718 1305.7291169996065 666.7994722187718L1305.7291169996065 666.7994722187718Q1318.7499495619104 666.7994722187718 1326.1335275560639 659.9367275271106Q1333.547742803305 653.1046200885371 1333.547742803305 641.4318266620953L1333.547742803305 641.4318266620953Q1333.547742803305 631.7198174332709 1329.2278901179288 626.2051118774718Q1324.9386746856408 620.6904063216725 1316.8810771235562 616.3705536362963Q1308.8234795614717 612.081338204008 1297.794068449873 606.566632648209L1297.794068449873 606.566632648209Q1287.4386769062057 601.266387864024 1280.1470106713157 596.2112411045414Q1272.8859816895133 591.1254570919709 1269.117599559717 584.3852614126608Q1265.3798546830087 577.6757029864384 1265.3798546830087 567.5347722143852L1265.3798546830087 567.5347722143852Q1265.3798546830087 560.0286452078807 1269.0256878004539 552.8595279853416Q1272.640883664811 545.6904107628027 1278.9521578008926 539.8386954230377Q1285.232794683886 533.986980083273 1293.0452942212683 530.5862449905302Q1300.8884310117382 527.1548726446995 1309.2830383577884 527.1548726446995L1309.2830383577884 527.1548726446995Q1319.4239691298415 527.1548726446995 1328.033037247506 529.5752156386336Q1336.6114681120823 531.9955586325677 1345.6800950260636 536.4073230772071L1345.6800950260636 536.4073230772071L1347.8859772483831 571.7014386343224L1344.3320558902014 571.7014386343224L1334.1911251181482 548.5396752999656Q1326.4705373400293 542.8105089725518 1320.7413710126157 540.2676169662666Q1315.012204685202 537.7553622130692 1307.5060776786975 537.7553622130692L1307.5060776786975 537.7553622130692Q1297.794068449873 537.7553622130692 1291.5134315668797 544.3730088800282Q1285.232794683886 550.9906555469875 1285.232794683886 560.672027522724L1285.232794683886 560.672027522724Q1285.232794683886 571.9465366590246 1292.0649021224597 578.2271735420181Q1298.897009561033 584.5078104250117 1313.4497047777256 591.5543786351998L1313.4497047777256 591.5543786351998Q1326.930096136346 598.1720253021588 1335.5085270009226 603.8092798703092Q1344.117595118587 609.4465344384596 1348.314898791612 616.707563420262Q1352.512202464637 623.999229655152 1352.512202464637 635.243101538365L1352.512202464637 635.243101538365Q1352.512202464637 645.5984930820325 1348.1004380199975 653.4416298725025Q1343.6886735753583 661.2847666629725 1336.7340171244334 666.5543741940696Q1329.779360673509 671.8546189782544 1321.50730233981 674.5200599968907Q1313.235244006111 677.1548637624394 1305.7291169996065 677.1548637624394ZM1474.4791070070637 674.9489815401196L1414.9202870044319 674.9489815401196L1414.9202870044319 671.4256974350255L1434.773227005309 662.6021685457467L1434.773227005309 606.9955541914376L1385.814896571047 540.1757052070034L1372.365142465514 532.8840389721132L1372.365142465514 529.3607548670193L1425.735237344416 529.3607548670193L1425.735237344416 532.8840389721132L1409.6506794733348 540.6046267502322L1409.6506794733348 541.4931070897776L1449.1114614503872 595.1082999933815L1484.6506750322046 541.707567861392L1484.6506750322046 540.8190875218465L1468.5354799080358 532.8840389721132L1468.5354799080358 529.3607548670193L1515.2879281199782 529.3607548670193L1515.2879281199782 532.8840389721132L1501.1947916996025 540.1757052070034L1454.6261670061865 606.7810934198233L1454.6261670061865 662.6021685457467L1474.4791070070637 671.4256974350255L1474.4791070070637 674.9489815401196ZM1649.8467436814801 674.9489815401196L1592.493805901168 674.9489815401196L1592.493805901168 671.4256974350255L1610.1408636797253 662.6021685457467L1610.1408636797253 541.707567861392L1592.493805901168 532.8840389721132L1592.493805901168 529.3607548670193L1649.8467436814801 529.3607548670193Q1675.8884088060877 529.3607548670193 1691.6665941462911 538.8583033242292Q1707.4447794864948 548.3252145283511 1707.4447794864948 568.8521740971594L1707.4447794864948 568.8521740971594Q1707.4447794864948 580.9845263199179 1699.1727211527957 590.3595257647767Q1690.9006628190966 599.7345252096354 1676.654340133282 605.2492307654345Q1662.4386547005552 610.7639363212338 1644.577136150383 610.7639363212338L1644.577136150383 610.7639363212338L1629.9938036806027 610.7639363212338L1629.9938036806027 662.6021685457467L1649.8467436814801 671.4256974350255L1649.8467436814801 674.9489815401196ZM1647.2119399159315 541.4931070897776L1629.9938036806027 541.4931070897776L1629.9938036806027 598.6315840984755L1648.7438025703202 598.6315840984755Q1666.1763995772635 598.6315840984755 1676.102869577702 590.7884473080055Q1686.0293395781407 582.9759477706232 1686.0293395781407 570.5984975231627L1686.0293395781407 570.5984975231627Q1686.0293395781407 555.1573219669247 1676.0109578184386 548.3252145283511Q1665.961938805649 541.4931070897776 1647.2119399159315 541.4931070897776L1647.2119399159315 541.4931070897776ZM1807.812420602041 677.1548637624394L1807.812420602041 677.1548637624394Q1791.9116862494866 677.1548637624394 1778.584481156305 671.517609194289Q1765.2266388100354 665.9109918792265 1755.3001688095972 655.8619728664366Q1745.3736988091582 645.8435911067347 1739.8589932533591 632.1487389764998Q1734.3442876975598 618.4845240993527 1734.3442876975598 602.1548682035693L1734.3442876975598 602.1548682035693Q1734.3442876975598 585.8252123077862 1739.8589932533591 572.1609974306391Q1745.3736988091582 558.4661453004042 1755.3001688095972 548.4477635407022Q1765.2266388100354 538.3987445279124 1778.584481156305 532.7921272128499Q1791.9116862494866 527.1548726446995 1807.812420602041 527.1548726446995L1807.812420602041 527.1548726446995Q1823.6825177015078 527.1548726446995 1837.1322718070403 532.7921272128499Q1850.5820259125728 538.3987445279124 1860.5084959130115 548.4477635407022Q1870.4349659134502 558.4661453004042 1875.9496714692498 572.1609974306391Q1881.4643770250484 585.8252123077862 1881.4643770250484 602.1548682035693L1881.4643770250484 602.1548682035693Q1881.4643770250484 618.4845240993527 1875.9496714692498 632.1487389764998Q1870.4349659134502 645.8435911067347 1860.5084959130115 655.8619728664366Q1850.5820259125728 665.9109918792265 1837.1322718070403 671.517609194289Q1823.6825177015078 677.1548637624394 1807.812420602041 677.1548637624394ZM1812.4386458182948 666.1254526508408L1812.4386458182948 666.1254526508408Q1826.5624194917584 666.1254526508408 1837.2548208193914 659.0788844406529Q1847.9472221470244 652.0016789773772 1854.0133982584036 639.2259444397755Q1860.079574369783 626.4195726490861 1860.079574369783 608.9869756421429L1860.079574369783 608.9869756421429Q1860.079574369783 587.6021729868769 1852.573447363278 571.6095268750591Q1845.0673203567737 555.6168807632412 1832.3834975784355 546.7933518739624Q1819.6996748000972 537.9698229846836 1804.0440384722447 537.9698229846836L1804.0440384722447 537.9698229846836Q1789.920264798781 537.9698229846836 1779.0134026995336 544.9244794356082Q1768.106540600286 551.8484986334452 1761.9178154765561 564.6548704241345Q1755.7290903528258 577.4612422148239 1755.7290903528258 594.8632019686793L1755.7290903528258 594.8632019686793Q1755.7290903528258 616.2786418770331 1763.3577663716812 632.3631997481143Q1770.9558051374493 648.4783948722832 1783.7621769281384 657.301923761562Q1796.53791146574 666.1254526508408 1812.4386458182948 666.1254526508408ZM1965.2879014731973 674.9489815401196L1911.2437870263645 674.9489815401196L1911.2437870263645 671.4256974350255L1928.8908448049226 662.6021685457467L1928.8908448049226 541.707567861392L1911.2437870263645 532.8840389721132L1911.2437870263645 529.3607548670193L1968.1678032634484 529.3607548670193Q1991.329566597805 529.3607548670193 2004.6874089440741 538.9502150834924Q2018.014614037256 548.5396752999656 2018.014614037256 565.3288899920656L2018.014614037256 565.3288899920656Q2018.014614037256 577.6757029864384 2009.6506439442935 587.4796239745258Q2001.2560365982438 597.3141822157013 1987.3467236963945 602.3693289751839L1987.3467236963945 602.3693289751839L2029.2584859204687 663.4906488852923L2043.8418183902488 671.4256974350255L2043.8418183902488 674.9489815401196L2012.0709869382279 674.9489815401196L1969.2707443746078 608.0984953025975L1948.7437848057996 608.0984953025975L1948.7437848057996 662.3877077741324L1965.2879014731973 671.4256974350255L1965.2879014731973 674.9489815401196ZM1963.082019250878 541.4931070897776L1963.082019250878 541.4931070897776L1948.7437848057996 541.4931070897776L1948.7437848057996 595.9661430798392L1964.43005838674 595.9661430798392Q1978.3087340355012 595.9661430798392 1987.4692727087456 588.1536435424568Q1996.62981138199 580.3105067519868 1996.62981138199 568.1781545292286L1996.62981138199 568.1781545292286Q1996.62981138199 555.8313415348557 1987.5918217210967 548.6622243123167Q1978.5231948071157 541.4931070897776 1963.082019250878 541.4931070897776ZM2149.050145493664 674.9489815401196L2085.079561046392 674.9489815401196L2085.079561046392 671.4256974350255L2107.138383269589 662.6021685457467L2107.138383269589 541.4931070897776L2071.1702481445427 541.4931070897776L2056.1886313846217 573.9073208566422L2052.665347279528 573.9073208566422L2052.665347279528 529.3607548670193L2181.464359260528 529.3607548670193L2181.464359260528 573.9073208566422L2177.941075155434 573.9073208566422L2162.959458395513 541.4931070897776L2126.9913232704666 541.4931070897776L2126.9913232704666 662.6021685457467L2149.050145493664 671.4256974350255L2149.050145493664 674.9489815401196ZM2263.0820014863575 674.9489815401196L2205.729063706045 674.9489815401196L2205.729063706045 671.4256974350255L2223.3761214846027 662.6021685457467L2223.3761214846027 541.707567861392L2205.729063706045 532.8840389721132L2205.729063706045 529.3607548670193L2311.396949605776 529.3607548670193L2311.396949605776 567.289674189683L2307.8736655006824 567.289674189683L2294.2094506235353 541.4931070897776L2243.22906148548 541.4931070897776L2243.22906148548 593.7602608575194L2278.5231770425953 593.7602608575194L2289.5525881541935 575.4698207641186L2293.106509512375 575.4698207641186L2293.106509512375 623.7847688835377L2289.5525881541935 623.7847688835377L2278.5231770425953 605.8926130802779L2243.22906148548 605.8926130802779L2243.22906148548 662.6021685457467L2263.0820014863575 671.4256974350255L2263.0820014863575 674.9489815401196ZM2415.7474336227333 677.1548637624394L2415.7474336227333 677.1548637624394Q2399.8466992701788 677.1548637624394 2386.519494176997 671.517609194289Q2373.1616518307283 665.9109918792265 2363.2351818302895 655.8619728664366Q2353.308711829851 645.8435911067347 2347.7940062740518 632.1487389764998Q2342.2793007182518 618.4845240993527 2342.2793007182518 602.1548682035693L2342.2793007182518 602.1548682035693Q2342.2793007182518 585.8252123077862 2347.7940062740518 572.1609974306391Q2353.308711829851 558.4661453004042 2363.2351818302895 548.4477635407022Q2373.1616518307283 538.3987445279124 2386.519494176997 532.7921272128499Q2399.8466992701788 527.1548726446995 2415.7474336227333 527.1548726446995L2415.7474336227333 527.1548726446995Q2431.6175307222 527.1548726446995 2445.0672848277327 532.7921272128499Q2458.547676186353 538.3987445279124 2468.4741461867916 548.4477635407022Q2478.4006161872303 558.4661453004042 2483.9153217430294 572.1609974306391Q2489.4300272988294 585.8252123077862 2489.4300272988294 602.1548682035693L2489.4300272988294 602.1548682035693Q2489.4300272988294 618.4845240993527 2483.9153217430294 632.1487389764998Q2478.4006161872303 645.8435911067347 2468.4741461867916 655.8619728664366Q2458.547676186353 665.9109918792265 2445.0672848277327 671.517609194289Q2431.6175307222 677.1548637624394 2415.7474336227333 677.1548637624394ZM2420.3736588389866 666.1254526508408L2420.3736588389866 666.1254526508408Q2434.4974325124504 666.1254526508408 2445.1898338400833 659.0788844406529Q2455.8822351677163 652.0016789773772 2461.948411279096 639.2259444397755Q2468.014587390475 626.4195726490861 2468.014587390475 608.9869756421429L2468.014587390475 608.9869756421429Q2468.014587390475 587.6021729868769 2460.5084603839705 571.6095268750591Q2453.032970630554 555.6168807632412 2440.3491478522155 546.7933518739624Q2427.6653250738773 537.9698229846836 2411.9790514929364 537.9698229846836L2411.9790514929364 537.9698229846836Q2397.885915072561 537.9698229846836 2386.948415720226 544.9244794356082Q2376.0415536209784 551.8484986334452 2369.852828497248 564.6548704241345Q2363.6947406266054 577.4612422148239 2363.6947406266054 594.8632019686793L2363.6947406266054 594.8632019686793Q2363.6947406266054 616.2786418770331 2371.2927793923736 632.3631997481143Q2378.890818158142 648.4783948722832 2391.697189948831 657.301923761562Q2404.5035617395206 666.1254526508408 2420.3736588389866 666.1254526508408ZM2628.8295288481986 674.9489815401196L2519.2094373001446 674.9489815401196L2519.2094373001446 671.4256974350255L2536.856495078703 662.6021685457467L2536.856495078703 541.707567861392L2519.2094373001446 532.8840389721132L2519.2094373001446 529.3607548670193L2576.562375080457 529.3607548670193L2576.562375080457 532.8840389721132L2556.7094350795796 541.707567861392L2556.7094350795796 662.8166293173613L2610.293990730095 662.8166293173613L2625.306244743105 625.9906511058573L2628.8295288481986 625.9906511058573L2628.8295288481986 674.9489815401196ZM2714.858935518667 674.9489815401196L2659.711879960674 674.9489815401196L2659.711879960674 671.4256974350255L2677.358937739232 662.6021685457467L2677.358937739232 541.707567861392L2659.711879960674 532.8840389721132L2659.711879960674 529.3607548670193L2714.858935518667 529.3607548670193L2714.858935518667 532.8840389721132L2697.2118777401092 541.707567861392L2697.2118777401092 662.6021685457467L2714.858935518667 671.4256974350255L2714.858935518667 674.9489815401196ZM2819.209419535624 677.1548637624394L2819.209419535624 677.1548637624394Q2803.3086851830694 677.1548637624394 2789.9814800898885 671.517609194289Q2776.623637743619 665.9109918792265 2766.69716774318 655.8619728664366Q2756.7706977427415 645.8435911067347 2751.2559921869424 632.1487389764998Q2745.7412866311433 618.4845240993527 2745.7412866311433 602.1548682035693L2745.7412866311433 602.1548682035693Q2745.7412866311433 585.8252123077862 2751.2559921869424 572.1609974306391Q2756.7706977427415 558.4661453004042 2766.69716774318 548.4477635407022Q2776.623637743619 538.3987445279124 2789.9814800898885 532.7921272128499Q2803.3086851830694 527.1548726446995 2819.209419535624 527.1548726446995L2819.209419535624 527.1548726446995Q2835.079516635091 527.1548726446995 2848.5292707406234 532.7921272128499Q2861.979024846157 538.3987445279124 2871.9054948465946 548.4477635407022Q2881.8319648470333 558.4661453004042 2887.3466704028333 572.1609974306391Q2892.8613759586315 585.8252123077862 2892.8613759586315 602.1548682035693L2892.8613759586315 602.1548682035693Q2892.8613759586315 618.4845240993527 2887.3466704028333 632.1487389764998Q2881.8319648470333 645.8435911067347 2871.9054948465946 655.8619728664366Q2861.979024846157 665.9109918792265 2848.5292707406234 671.517609194289Q2835.079516635091 677.1548637624394 2819.209419535624 677.1548637624394ZM2823.835644751878 666.1254526508408L2823.835644751878 666.1254526508408Q2837.959418425342 666.1254526508408 2848.651819752975 659.0788844406529Q2859.344221080608 652.0016789773772 2865.4103971919867 639.2259444397755Q2871.4765733033664 626.4195726490861 2871.4765733033664 608.9869756421429L2871.4765733033664 608.9869756421429Q2871.4765733033664 587.6021729868769 2863.970446296862 571.6095268750591Q2856.464319290357 555.6168807632412 2843.7804965120185 546.7933518739624Q2831.0966737336803 537.9698229846836 2815.441037405828 537.9698229846836L2815.441037405828 537.9698229846836Q2801.317263732364 537.9698229846836 2790.4104016331175 544.9244794356082Q2779.503539533869 551.8484986334452 2773.3148144101397 564.6548704241345Q2767.1260892864093 577.4612422148239 2767.1260892864093 594.8632019686793L2767.1260892864093 594.8632019686793Q2767.1260892864093 616.2786418770331 2774.754765305265 632.3631997481143Q2782.3528040710326 648.4783948722832 2795.1591758617215 657.301923761562Q2807.9349103993236 666.1254526508408 2823.835644751878 666.1254526508408Z " fill="#fad744" transform="matrix(0.30246869394864706,0,0,0.3024686939486471,0,117.86702078156169)"/></g></svg>